FFmpeg version SVN-r25716, Copyright (c) 2000-2010 the FFmpeg developers  built on Nov 10 2010 12:23:18 with gcc 4.1.2 20080704 (Red Hat 4.1.2-48)  configuration: --enable-libmp3lame --enable-shared --disable-mmx --arch=x86_64  libavutil     50.33. 0 / 50.33. 0  libavcore      0.12. 1 /  0.12. 1  libavcodec    52.94. 4 / 52.94. 4  libavformat   52.84. 0 / 52.84. 0  libavdevice   52. 2. 2 / 52. 2. 2  libavfilter    1.59. 0 /  1.59. 0  libswscale     0.12. 0 /  0.12. 0[mov,mp4,m4a,3gp,3g2,mj2 @ 0xcd964c0] max_analyze_duration reachedSeems stream 0 codec frame rate differs from container frame rate: 600.00 (600/1) -> 15.00 (15/1)Input #0, mov,mp4,m4a,3gp,3g2,mj2, from '/RAID10/data/converted_video_files/35207.mov':  Duration: 00:00:06.73, bitrate: 1236 kb/s    Stream #0.0(eng): Video: svq1, yuv410p, 320x240, 1234 kb/s, 15 fps, 15 tbr, 600 tbn, 600 tbc[buffer @ 0xcd98e50] w:320 h:240 pixfmt:yuv410p[ffsink @ 0xcd9bdd0] auto-inserting filter 'auto-inserted scaler 0' between the filter 'src' and the filter 'out'[scale @ 0xcd9c0f0] w:320 h:240 fmt:yuv410p -> w:320 h:240 fmt:yuv420p flags:0x4Output #0, flv, to '/RAID10/data/converted_video_files/35207.flv':  Metadata:    encoder         : Lavf52.84.0    Stream #0.0(eng): Video: flv, yuv420p, 320x240, q=2-31, 600 kb/s, 1k tbn, 24 tbcStream mapping:  Stream #0.0 -> #0.0Press [q] to stop encodingframe=   11 fps=  0 q=3.8 size=      89kB time=0.71 bitrate=1026.5kbits/s    frame=   25 fps= 20 q=3.6 size=     160kB time=1.62 bitrate= 807.8kbits/s    frame=   37 fps= 22 q=3.8 size=     223kB time=2.46 bitrate= 742.9kbits/s    frame=   52 fps= 24 q=4.7 size=     293kB time=3.46 bitrate= 692.8kbits/s    frame=   78 fps= 29 q=4.7 size=     418kB time=5.17 bitrate= 662.7kbits/s    frame=  101 fps= 35 q=4.3 Lsize=     471kB time=6.71 bitrate= 575.8kbits/s    video:470kB audio:0kB global headers:0kB muxing overhead 0.379639%